<svg xmlns="http://www.w3.org/2000/svg" xmlns:xlink="http://www.w3.org/1999/xlink" width="500" zoomAndPan="magnify" viewBox="0 0 375 374.999991" height="500" preserveAspectRatio="xMidYMid meet" version="1.0"><defs><clipPath id="c8680b6b32"><path d="M 80 101 L 294 101 L 294 274 L 80 274 Z M 80 101 " clip-rule="nonzero"/></clipPath><clipPath id="836624c044"><path d="M 48.863281 153.09375 L 263.910156 66.707031 L 326.253906 221.902344 L 111.207031 308.292969 Z M 48.863281 153.09375 " clip-rule="nonzero"/></clipPath><clipPath id="d0601149c4"><path d="M 48.863281 153.09375 L 263.910156 66.707031 L 326.253906 221.902344 L 111.207031 308.292969 Z M 48.863281 153.09375 " clip-rule="nonzero"/></clipPath></defs><rect x="-37.5" width="450" fill="#ffffff" y="-37.499999" height="449.999989" fill-opacity="1"/><rect x="-37.5" width="450" fill="#ffffff" y="-37.499999" height="449.999989" fill-opacity="1"/><g clip-path="url(#c8680b6b32)"><g clip-path="url(#836624c044)"><g clip-path="url(#d0601149c4)"><path fill="#dfa100" d="M 290.332031 155.75 L 290.28125 155.820312 C 286.523438 160.609375 284.609375 166.601562 284.96875 172.675781 C 287.140625 209.652344 260.992188 247.910156 218.574219 264.949219 C 176.140625 281.996094 130.777344 272.445312 106.773438 244.222656 C 102.828125 239.582031 97.300781 236.578125 91.273438 235.71875 C 81.492188 234.324219 76.886719 222.863281 82.984375 215.085938 L 84.492188 213.167969 C 87.960938 208.742188 89.804688 203.277344 89.835938 197.652344 C 90.023438 162.171875 115.726562 126.386719 156.355469 110.0625 C 196.96875 93.75 240.265625 101.796875 264.953125 127.265625 C 268.863281 131.300781 273.976562 133.96875 279.542969 134.765625 L 282.046875 135.121094 C 291.828125 136.515625 296.433594 147.976562 290.332031 155.75 Z M 290.332031 155.75 " fill-opacity="1" fill-rule="nonzero"/></g></g></g></svg>
